<svg width="100" height="100" viewBox="0 0 100 100" fill="none" xmlns="http://www.w3.org/2000/svg">
<g id="Blueprint 1">
<path id="Vector" d="M7.8125 76.5623L7.81256 76.5621L7.8125 76.562V76.5623Z" fill="#F5AA21"/>
<path id="Vector_2" d="M21.875 18.75V10.9394L19.62 9.46664C17.9675 8.38727 16.0363 7.8125 14.0625 7.8125C10.6108 7.8125 7.8125 10.6108 7.8125 14.0625V76.562C7.81269 80.0134 10.6109 82.8117 14.0625 82.8117L82.8125 82.8125V18.7508L21.875 18.75Z" fill="#F5AA21"/>
<path id="Vector_3" d="M75.5651 75.1933L21.875 18.75V73.4393L15.625 70.436C15.1146 70.3574 14.598 70.3124 14.0773 70.3124H14.0625C10.6097 70.3124 7.8132 73.1087 7.81262 76.5615C7.81281 80.0128 10.6109 82.8117 14.0625 82.8117L82.8125 82.8125V67.9459L75.5651 75.1933Z" fill="#FF9900"/>
<path id="Vector_4" d="M19.62 9.46664C17.9675 8.38727 16.0363 7.8125 14.0625 7.8125C10.6108 7.8125 7.8125 10.6108 7.8125 14.0625V76.5624C7.8125 73.1094 10.6094 70.3124 14.0625 70.3124H14.0773C16.0616 70.3124 18.0024 70.8933 19.6605 71.9834L21.875 73.4393V10.9394L19.62 9.46664Z" fill="#F5AA21"/>
<path id="Vector_5" d="M45.3125 92.1875H92.1875V45.3125L45.3125 92.1875ZM82.8125 82.8125H67.9459L82.8125 67.9458V82.8125Z" fill="#F57C3C"/>
<path id="Vector_6" d="M45.3125 92.1875H92.1875V87.5H50L45.3125 92.1875Z" fill="#F9A825"/>
<path id="Vector_7" d="M13.4293 62.3055C12.6739 62.3055 12.0621 61.6936 12.0621 60.9383V47.9088C12.0621 47.1535 12.6739 46.5416 13.4293 46.5416C14.1846 46.5416 14.7964 47.1535 14.7964 47.9088V60.9383C14.7964 61.6936 14.1846 62.3055 13.4293 62.3055Z" fill="white"/>
<path id="Vector_8" d="M72.2946 25.6188H59.375C58.6197 25.6188 58.0078 25.0069 58.0078 24.2516C58.0078 23.4963 58.6197 22.8844 59.375 22.8844H72.2946C73.0499 22.8844 73.6618 23.4963 73.6618 24.2516C73.6618 25.0069 73.0499 25.6188 72.2946 25.6188Z" fill="white"/>
<path id="Vector_9" d="M87.2338 66.2133C86.4785 66.2133 85.8666 65.6014 85.8666 64.8461V59.0111C85.8666 58.2558 86.4785 57.6439 87.2338 57.6439C87.9891 57.6439 88.601 58.2558 88.601 59.0111V64.8461C88.601 65.6014 87.9891 66.2133 87.2338 66.2133Z" fill="white"/>
<path id="Vector_10" d="M53.7606 25.6188H52.1279C51.3726 25.6188 50.7607 25.0069 50.7607 24.2516C50.7607 23.4963 51.3726 22.8844 52.1279 22.8844H53.7606C54.5159 22.8844 55.1277 23.4963 55.1277 24.2516C55.1277 25.0069 54.5159 25.6188 53.7606 25.6188Z" fill="white"/>
<path id="Vector_11" d="M82.8125 56.0547C82.0572 56.0547 81.4453 55.4428 81.4453 54.6875V38.4155C81.4453 37.6602 82.0572 37.0483 82.8125 37.0483C83.5678 37.0483 84.1797 37.6602 84.1797 38.4155V54.6875C84.1797 55.4428 83.5678 56.0547 82.8125 56.0547Z" fill="#070707"/>
<path id="Vector_12" d="M82.8125 31.0547C82.0572 31.0547 81.4453 30.4428 81.4453 29.6875V20.1172H21.875C21.1197 20.1172 20.5078 19.5053 20.5078 18.75C20.5078 17.9947 21.1197 17.3828 21.875 17.3828H82.8125C83.5678 17.3828 84.1797 17.9947 84.1797 18.75V29.6875C84.1797 30.4428 83.5678 31.0547 82.8125 31.0547Z" fill="#070707"/>
<path id="Vector_13" d="M45.7504 84.1797H14.0625C9.86252 84.1797 6.44531 80.7625 6.44531 76.5625C6.44531 75.8072 7.05719 75.1953 7.8125 75.1953C8.56781 75.1953 9.17969 75.8072 9.17969 76.5625C9.17969 79.2549 11.3701 81.4453 14.0625 81.4453H45.7504C46.5057 81.4453 47.1176 82.0572 47.1176 82.8125C47.1176 83.5678 46.5057 84.1797 45.7504 84.1797Z" fill="#070707"/>
<path id="Vector_14" d="M7.8125 77.9297C7.05719 77.9297 6.44531 77.3178 6.44531 76.5625V26.767C6.44531 26.0117 7.05719 25.3998 7.8125 25.3998C8.56781 25.3998 9.17969 26.0117 9.17969 26.767V70.7207C10.5026 69.6129 12.2063 68.9453 14.0625 68.9453C16.3391 68.9453 18.5287 69.6014 20.4094 70.8428L20.5078 70.9076V18.75C20.5078 17.9947 21.1197 17.3828 21.875 17.3828C22.6303 17.3828 23.2422 17.9947 23.2422 18.75V73.4375C23.2422 73.9395 22.9668 74.4019 22.525 74.6407C22.0818 74.8802 21.5447 74.8566 21.1258 74.5811L18.9072 73.1277C17.4706 72.1794 15.802 71.6797 14.0778 71.6797C11.3701 71.6797 9.17969 73.8701 9.17969 76.5625C9.17969 77.3178 8.56781 77.9297 7.8125 77.9297Z" fill="#070707"/>
<path id="Vector_15" d="M21.875 20.1172C21.1197 20.1172 20.5078 19.5053 20.5078 18.75V11.6775L18.8774 10.614C17.437 9.67559 15.7715 9.17969 14.0625 9.17969C12.7678 9.17969 11.5387 9.68933 10.6003 10.614C9.68933 11.5387 9.17969 12.7678 9.17969 14.0625V18.75C9.17969 19.5053 8.56781 20.1172 7.8125 20.1172C7.05719 20.1172 6.44531 19.5053 6.44531 18.75V14.0625C6.44531 12.0453 7.23419 10.1334 8.667 8.68072C10.1334 7.23419 12.0453 6.44531 14.0625 6.44531C16.3025 6.44531 18.4837 7.09458 20.3712 8.32291L22.6227 9.79233C23.0087 10.0449 23.2422 10.4759 23.2422 10.9375V18.75C23.2422 19.5053 22.6303 20.1172 21.875 20.1172Z" fill="#070707"/>
<path id="Vector_16" d="M65.625 73.2422H31.25C30.4947 73.2422 29.8828 72.6303 29.8828 71.875V29.6875C29.8828 28.9322 30.4947 28.3203 31.25 28.3203H73.4375C74.1928 28.3203 74.8047 28.9322 74.8047 29.6875V64.0625C74.8047 64.8178 74.1928 65.4297 73.4375 65.4297C72.6822 65.4297 72.0703 64.8178 72.0703 64.0625V31.0547H32.6172V70.5078H65.625C66.3803 70.5078 66.9922 71.1197 66.9922 71.875C66.9922 72.6303 66.3803 73.2422 65.625 73.2422Z" fill="#070707"/>
<path id="Vector_17" d="M92.1875 93.5547H45.3125C44.7594 93.5547 44.2612 93.2213 44.0491 92.7109C43.8378 92.1997 43.9545 91.6115 44.3459 91.2209L91.2209 44.3459C91.613 43.9545 92.1997 43.8401 92.7109 44.0491C93.2213 44.2612 93.5547 44.7594 93.5547 45.3125V92.1875C93.5547 92.9428 92.9428 93.5547 92.1875 93.5547ZM48.613 90.8203H90.8203V48.613L48.613 90.8203ZM82.8125 84.1797H67.9459C67.3927 84.1797 66.8945 83.8463 66.6825 83.3359C66.4711 82.8247 66.5878 82.2365 66.9792 81.8459L81.8459 66.9793C82.2373 66.5886 82.8262 66.4734 83.3359 66.6825C83.8463 66.8946 84.1797 67.3928 84.1797 67.9459V82.8125C84.1797 83.5678 83.5678 84.1797 82.8125 84.1797ZM71.2464 81.4453H81.4453V71.2464L71.2464 81.4453Z" fill="#070707"/>
<path id="Vector_18" d="M45.752 63.2958C44.9966 63.2958 44.3848 62.6839 44.3848 61.9286V57.2411H31.25C30.4947 57.2411 29.8828 56.6292 29.8828 55.8739C29.8828 55.1186 30.4947 54.5067 31.25 54.5067H45.752C46.5073 54.5067 47.1191 55.1186 47.1191 55.8739V61.9286C47.1191 62.6839 46.5073 63.2958 45.752 63.2958Z" fill="#070707"/>
<path id="Vector_19" d="M50.7324 57.241C49.9771 57.241 49.3652 56.6291 49.3652 55.8738C49.3652 55.1185 49.9771 54.5066 50.7324 54.5066L73.4375 54.5059C74.1928 54.5059 74.8047 55.1177 74.8047 55.873C74.8047 56.6284 74.1928 57.2402 73.4375 57.2402L50.7324 57.241Z" fill="#070707"/>
<path id="Vector_20" d="M43.75 48.5115C42.9947 48.5115 42.3828 47.8996 42.3828 47.1443V29.6875C42.3828 28.9322 42.9947 28.3203 43.75 28.3203C44.5053 28.3203 45.1172 28.9322 45.1172 29.6875V47.1443C45.1172 47.8996 44.5053 48.5115 43.75 48.5115Z" fill="#070707"/>
<path id="Vector_21" d="M59.375 48.5115C58.6197 48.5115 58.0078 47.8996 58.0078 47.1443V29.6875C58.0078 28.9322 58.6197 28.3203 59.375 28.3203C60.1303 28.3203 60.7422 28.9322 60.7422 29.6875V47.1443C60.7422 47.8996 60.1303 48.5115 59.375 48.5115Z" fill="#070707"/>
<path id="Vector_22" d="M67.1875 48.5115H54.6875C53.9322 48.5115 53.3203 47.8996 53.3203 47.1443C53.3203 46.389 53.9322 45.7771 54.6875 45.7771H67.1875C67.9428 45.7771 68.5547 46.389 68.5547 47.1443C68.5547 47.8996 67.9428 48.5115 67.1875 48.5115Z" fill="#070707"/>
<path id="Vector_23" d="M58.7891 71.7872C58.0337 71.7872 57.4219 71.1753 57.4219 70.42V55.873C57.4219 55.1177 58.0337 54.5059 58.7891 54.5059C59.5444 54.5059 60.1562 55.1177 60.1562 55.873V70.42C60.1562 71.1753 59.5444 71.7872 58.7891 71.7872Z" fill="#070707"/>
</g>
</svg>
