<svg width="100" height="100" viewBox="0 0 100 100" fill="none" xmlns="http://www.w3.org/2000/svg">
<g id="Construction Worker 1">
<path id="Vector" d="M83.9858 67.588C83.312 62.8714 79.3628 59.3748 74.7094 59.375H25.2906C20.6372 59.3748 16.688 62.8714 16.0142 67.588L12.5 92.1875H87.5L83.9858 67.588Z" fill="#FFC62B"/>
<path id="Vector_2" d="M13.6161 84.375L12.5 92.1875H87.5L86.3839 84.375H13.6161Z" fill="#FFCD51"/>
<path id="Vector_3" d="M73.4375 76.5625H26.5625V92.1875H73.4375V76.5625Z" fill="#F5AA21"/>
<path id="Vector_4" d="M73.4375 84.375H26.5625V92.1875H73.4375V84.375Z" fill="#FF9900"/>
<path id="Vector_5" d="M42.1875 55.9375V59.375C44.3869 67.2926 55.6131 67.2926 57.8125 59.375V55.9375H42.1875Z" fill="#FBBB9F"/>
<path id="Vector_6" d="M32.8125 34.375V40.625C32.8125 50.1174 40.5076 57.8125 50 57.8125C59.4924 57.8125 67.1875 50.1174 67.1875 40.625V34.375H32.8125Z" fill="#FBBB9F"/>
<path id="Vector_7" d="M67.1875 34.375H32.8125V39.0625H67.1875V34.375Z" fill="#F58E81"/>
<path id="Vector_8" d="M69.5312 28.125H30.4688C29.6058 28.125 28.9062 28.8246 28.9062 29.6875V32.8125C28.9062 33.6754 29.6058 34.375 30.4688 34.375H69.5312C70.3942 34.375 71.0938 33.6754 71.0938 32.8125V29.6875C71.0938 28.8246 70.3942 28.125 69.5312 28.125Z" fill="#F57C3C"/>
<path id="Vector_9" d="M69.0006 28.125C68.0423 18.475 59.9024 10.9375 50 10.9375C40.0976 10.9375 31.9577 18.475 30.9994 28.125H69.0006Z" fill="#F9A825"/>
<path id="Vector_10" d="M53.125 28.125H46.875L44.1655 10.5126C43.947 9.09289 45.0455 7.8125 46.482 7.8125H53.5182C54.9546 7.8125 56.0531 9.09289 55.8347 10.5126L53.125 28.125Z" fill="#F57C3C"/>
<path id="Vector_11" d="M30.4688 84.375C28.3114 84.375 26.5625 82.6261 26.5625 80.4688V59.375H34.375V80.4688C34.375 82.6261 32.6261 84.375 30.4688 84.375Z" fill="#F5AA21"/>
<path id="Vector_12" d="M69.5312 84.375C71.6886 84.375 73.4375 82.6261 73.4375 80.4688V59.375H65.625V80.4688C65.625 82.6261 67.3739 84.375 69.5312 84.375Z" fill="#F5AA21"/>
<path id="Vector_13" d="M87.5 93.5547H12.5C11.7447 93.5547 11.1328 92.9428 11.1328 92.1875C11.1328 91.4322 11.7447 90.8203 12.5 90.8203H85.9238L82.6324 67.7811C82.0595 63.768 78.6529 60.7422 74.7093 60.7422H57.8125C57.0572 60.7422 56.4453 60.1303 56.4453 59.375C56.4453 58.6197 57.0572 58.0078 57.8125 58.0078H74.7093C80.0049 58.0078 84.5749 62.043 85.3393 67.395L88.8534 91.9945C88.9091 92.3866 88.7924 92.7841 88.533 93.0832C88.2728 93.383 87.896 93.5547 87.5 93.5547Z" fill="#070707"/>
<path id="Vector_14" d="M13.6177 85.7422C13.5536 85.7422 13.4887 85.7376 13.4231 85.7285C12.6754 85.6216 12.1559 84.9289 12.2627 84.182L14.6606 67.395C15.4251 62.043 19.9951 58.0078 25.2906 58.0078H42.1875C42.9428 58.0078 43.5547 58.6197 43.5547 59.375C43.5547 60.1303 42.9428 60.7422 42.1875 60.7422H25.2906C21.347 60.7422 17.9405 63.768 17.3675 67.7811L14.9696 84.568C14.8719 85.2501 14.2875 85.7422 13.6177 85.7422Z" fill="#070707"/>
<path id="Vector_15" d="M26.5625 93.5547C25.8072 93.5547 25.1953 92.9428 25.1953 92.1875V76.5625C25.1953 75.8072 25.8072 75.1953 26.5625 75.1953C27.3178 75.1953 27.9297 75.8072 27.9297 76.5625V92.1875C27.9297 92.9428 27.3178 93.5547 26.5625 93.5547Z" fill="#070707"/>
<path id="Vector_16" d="M73.4375 93.5547C72.6822 93.5547 72.0703 92.9428 72.0703 92.1875V76.5625C72.0703 75.8072 72.6822 75.1953 73.4375 75.1953C74.1928 75.1953 74.8047 75.8072 74.8047 76.5625V92.1875C74.8047 92.9428 74.1928 93.5547 73.4375 93.5547Z" fill="#070707"/>
<path id="Vector_17" d="M65.625 77.9297H34.375C33.6197 77.9297 33.0078 77.3178 33.0078 76.5625C33.0078 75.8072 33.6197 75.1953 34.375 75.1953H65.625C66.3803 75.1953 66.9922 75.8072 66.9922 76.5625C66.9922 77.3178 66.3803 77.9297 65.625 77.9297Z" fill="#070707"/>
<path id="Vector_18" d="M50 66.6831C45.6268 66.6831 42.0433 63.9587 40.8707 59.7412C40.8371 59.6221 40.8203 59.4986 40.8203 59.3749V55.9371C40.8203 55.1818 41.4322 54.5699 42.1875 54.5699C42.9428 54.5699 43.5547 55.1818 43.5547 55.9371V59.1811C44.6182 62.696 47.6753 63.9488 50 63.9488C52.3247 63.9488 55.3818 62.696 56.4453 59.1811V55.9371C56.4453 55.1818 57.0572 54.5699 57.8125 54.5699C58.5678 54.5699 59.1797 55.1818 59.1797 55.9371V59.3749C59.1797 59.4985 59.1629 59.6221 59.1293 59.7412C57.9567 63.9587 54.3732 66.6831 50 66.6831Z" fill="#070707"/>
<path id="Vector_19" d="M50 59.1797C39.769 59.1797 31.4453 50.856 31.4453 40.625V39.0625C31.4453 38.3072 32.0572 37.6953 32.8125 37.6953C33.5678 37.6953 34.1797 38.3072 34.1797 39.0625V40.625C34.1797 49.3485 41.2765 56.4453 50 56.4453C58.7235 56.4453 65.8203 49.3485 65.8203 40.625V34.375C65.8203 33.6197 66.4322 33.0078 67.1875 33.0078C67.9428 33.0078 68.5547 33.6197 68.5547 34.375V40.625C68.5547 50.856 60.231 59.1797 50 59.1797Z" fill="#070707"/>
<path id="Vector_20" d="M50.0001 51.3672C46.1739 51.3672 42.6125 49.3087 40.7059 45.9945C40.329 45.3399 40.5549 44.5037 41.2087 44.1276C41.8664 43.753 42.7003 43.9766 43.0756 44.6304C44.4962 47.0993 47.1489 48.6328 50.0001 48.6328C52.8512 48.6328 55.5039 47.0993 56.9245 44.6304C57.2999 43.975 58.1345 43.75 58.7914 44.1276C59.4452 44.5037 59.6711 45.3399 59.2942 45.9945C57.3876 49.3087 53.8262 51.3672 50.0001 51.3672Z" fill="#070707"/>
<path id="Vector_21" d="M69.5312 35.7422H30.4688C28.8536 35.7422 27.5391 34.4276 27.5391 32.8125V29.6875C27.5391 28.0724 28.8536 26.7578 30.4688 26.7578H69.5312C71.1464 26.7578 72.4609 28.0724 72.4609 29.6875V32.8125C72.4609 34.4276 71.1464 35.7422 69.5312 35.7422ZM30.4688 29.4922C30.3612 29.4922 30.2734 29.5799 30.2734 29.6875V32.8125C30.2734 32.9201 30.3612 33.0078 30.4688 33.0078H69.5312C69.6388 33.0078 69.7266 32.9201 69.7266 32.8125V29.6875C69.7266 29.5799 69.6388 29.4922 69.5312 29.4922H30.4688Z" fill="#070707"/>
<path id="Vector_22" d="M53.1266 29.4922C53.0579 29.4922 52.9877 29.4868 52.9168 29.4762C52.1706 29.3617 51.6587 28.6636 51.7739 27.9167L54.4838 10.3042C54.5433 9.91897 54.3686 9.64736 54.2595 9.52072C54.1504 9.39331 53.9086 9.17969 53.518 9.17969H46.4821C46.0915 9.17969 45.8496 9.39331 45.7405 9.52072C45.6315 9.64736 45.4567 9.91897 45.5163 10.305L48.2262 27.9167C48.3414 28.6636 47.8295 29.3617 47.0833 29.4762C46.3295 29.5898 45.6383 29.0779 45.5239 28.3333L42.8139 10.7208C42.6491 9.64887 42.9596 8.56245 43.6653 7.74002C44.3711 6.9168 45.398 6.44531 46.4821 6.44531H53.5179C54.6021 6.44531 55.629 6.91681 56.3347 7.74002C57.0404 8.56247 57.3509 9.64889 57.1861 10.7201L54.4762 28.3333C54.3724 29.0085 53.7903 29.4922 53.1266 29.4922Z" fill="#070707"/>
<path id="Vector_23" d="M39.0633 21.6797C38.5621 21.6797 38.0791 21.4028 37.8396 20.9237L35.73 16.7046C35.3928 16.0294 35.6659 15.2085 36.3419 14.8705C37.0163 14.5355 37.8396 14.8072 38.176 15.4824L40.2855 19.7014C40.6228 20.3766 40.3496 21.1975 39.6737 21.5355C39.4776 21.6332 39.2693 21.6797 39.0633 21.6797Z" fill="#070707"/>
<path id="Vector_24" d="M60.9367 21.6797C60.7307 21.6797 60.5225 21.6332 60.3264 21.5355C59.6504 21.1975 59.3773 20.3766 59.7145 19.7014L61.8241 15.4824C62.1636 14.8072 62.9852 14.5355 63.6582 14.8705C64.3341 15.2085 64.6073 16.0294 64.27 16.7046L62.1605 20.9237C61.9209 21.4028 61.438 21.6797 60.9367 21.6797Z" fill="#070707"/>
<path id="Vector_25" d="M31.0012 29.4921C30.9562 29.4921 30.9112 29.4899 30.8654 29.4853C30.1139 29.4113 29.5646 28.7422 29.6394 27.9907C30.4504 19.7792 36.071 12.9036 43.9575 10.4744C44.6746 10.2539 45.4437 10.6567 45.6664 11.3792C45.8885 12.1002 45.4833 12.8654 44.7616 13.0882C37.931 15.1916 33.0634 21.1471 32.36 28.2592C32.2906 28.9649 31.6955 29.4921 31.0012 29.4921Z" fill="#070707"/>
<path id="Vector_26" d="M67.6033 23.9807C67.07 23.9807 66.5626 23.6672 66.3429 23.1445C64.3013 18.2984 60.2531 14.6324 55.2383 13.0882C54.5166 12.8655 54.1115 12.1002 54.3335 11.3793C54.5563 10.6568 55.3268 10.2554 56.0425 10.4744C61.8332 12.2582 66.5062 16.4894 68.8622 22.0825C69.1559 22.7783 68.8293 23.5802 68.1335 23.8732C67.9604 23.9464 67.7803 23.9807 67.6033 23.9807Z" fill="#070707"/>
<path id="Vector_27" d="M30.4688 85.7422C27.5612 85.7422 25.1953 83.3763 25.1953 80.4688V59.375C25.1953 58.6197 25.8072 58.0078 26.5625 58.0078C27.3178 58.0078 27.9297 58.6197 27.9297 59.375V80.4688C27.9297 81.8687 29.0687 83.0078 30.4688 83.0078C31.8688 83.0078 33.0078 81.8687 33.0078 80.4688V59.375C33.0078 58.6197 33.6197 58.0078 34.375 58.0078C35.1303 58.0078 35.7422 58.6197 35.7422 59.375V80.4688C35.7422 83.3763 33.3763 85.7422 30.4688 85.7422Z" fill="#070707"/>
<path id="Vector_28" d="M69.5312 85.7422C66.6237 85.7422 64.2578 83.3763 64.2578 80.4688V59.375C64.2578 58.6197 64.8697 58.0078 65.625 58.0078C66.3803 58.0078 66.9922 58.6197 66.9922 59.375V80.4688C66.9922 81.8687 68.1312 83.0078 69.5312 83.0078C70.9313 83.0078 72.0703 81.8687 72.0703 80.4688V65.625C72.0703 64.8697 72.6822 64.2578 73.4375 64.2578C74.1928 64.2578 74.8047 64.8697 74.8047 65.625V80.4688C74.8047 83.3763 72.4388 85.7422 69.5312 85.7422Z" fill="#070707"/>
<path id="Vector_29" d="M59.375 82.6172H53.125C52.3697 82.6172 51.7578 82.0053 51.7578 81.25C51.7578 80.4947 52.3697 79.8828 53.125 79.8828H59.375C60.1303 79.8828 60.7422 80.4947 60.7422 81.25C60.7422 82.0053 60.1303 82.6172 59.375 82.6172Z" fill="white"/>
<path id="Vector_30" d="M80.7404 78.209C80.0812 78.209 79.5006 77.7314 79.3923 77.06L78.3379 70.5307C78.2174 69.7854 78.724 69.0835 79.4694 68.9629C80.2224 68.8439 80.9174 69.3497 81.0372 70.0943L82.0916 76.6236C82.2121 77.369 81.7055 78.0709 80.9602 78.1914C80.8862 78.2036 80.8129 78.209 80.7404 78.209Z" fill="white"/>
<path id="Vector_31" d="M19.2596 78.2089C19.1872 78.2089 19.1139 78.2036 19.0399 78.1914C18.2945 78.0708 17.7879 77.3689 17.9085 76.6235L18.9629 70.0943C19.0826 69.3489 19.78 68.8362 20.5307 68.9628C21.2761 69.0834 21.7827 69.7853 21.6621 70.5307L20.6078 77.0599C20.4994 77.7313 19.9188 78.2089 19.2596 78.2089Z" fill="white"/>
</g>
</svg>
