<svg width="64" height="64" viewBox="0 0 64 64" fill="none" xmlns="http://www.w3.org/2000/svg">
<g id="Excavator 1">
<path id="Vector" d="M7 36.4995H42V24L37 18H28V24H11L7 30V36.4995Z" fill="#F5AA21"/>
<path id="Vector_2" d="M42 33.3262H7V36.4994H42V33.3262Z" fill="#FFCD51"/>
<path id="Vector_3" d="M42 31V24L37 18H28V24V31H42Z" fill="#FF9900"/>
<path id="Vector_4" d="M28 18H17V24H28V18Z" fill="#F5AA21"/>
<path id="Vector_5" d="M54 32L44.427 12.1175C42.8401 8.82179 45.2417 5 48.8996 5C51.2797 5 53.3249 6.68933 53.7743 9.02661L58 31L54 32Z" fill="#F5AA21"/>
<path id="Vector_6" d="M47.4234 5.22803L26.2369 8.50012C24.2195 8.8117 22.4988 10.1276 21.6698 11.993L19 18.0001H28V14.8198C28 14.3431 28.3365 13.9327 28.8039 13.8393L44.0054 10.799C43.5813 8.36108 45.0689 5.95483 47.4234 5.22803Z" fill="#F5AA21"/>
<path id="Vector_7" d="M26.8512 11.8697C26.0811 12.0086 25.4627 12.5838 25.2687 13.3419L24.0762 18H28V14.8197C28 14.3431 28.3365 13.9327 28.8039 13.8392L44.0054 10.7989C43.9587 10.5309 43.9375 10.2641 43.9385 10L26.8512 11.8697Z" fill="#FFCD51"/>
<path id="Vector_8" d="M54 32L47.4234 41.695C47.4234 41.695 59 41.2654 59 36.0708C59 33.0574 58 31 58 31L54 32Z" fill="#F57C3C"/>
<path id="Vector_9" d="M47.4234 41.6951C47.4234 41.6951 59 41.2656 59 36.0709C59 35.8893 58.9861 35.7232 58.9793 35.5488C56.0404 37.6233 52.2804 38.0643 49.861 38.1016L47.4234 41.6951Z" fill="#FFC62B"/>
<path id="Vector_10" d="M38 36.4995H11V40.0001H38V36.4995Z" fill="#F57C3C"/>
<path id="Vector_11" d="M38.5 40H10.5C7.46243 40 5 42.4624 5 45.5V45.5C5 48.5376 7.46243 51 10.5 51H38.5C41.5376 51 44 48.5376 44 45.5C44 42.4624 41.5376 40 38.5 40Z" fill="#FFC62B"/>
<path id="Vector_12" d="M11.9616 48.0383C13.3635 48.0383 14.5 46.9018 14.5 45.4999C14.5 44.0979 13.3635 42.9614 11.9616 42.9614C10.5596 42.9614 9.4231 44.0979 9.4231 45.4999C9.4231 46.9018 10.5596 48.0383 11.9616 48.0383Z" fill="white"/>
<path id="Vector_13" d="M20.4231 48.0383C21.8251 48.0383 22.9616 46.9018 22.9616 45.4999C22.9616 44.0979 21.8251 42.9614 20.4231 42.9614C19.0212 42.9614 17.8846 44.0979 17.8846 45.4999C17.8846 46.9018 19.0212 48.0383 20.4231 48.0383Z" fill="white"/>
<path id="Vector_14" d="M28.7308 48.0383C30.1327 48.0383 31.2692 46.9018 31.2692 45.4999C31.2692 44.0979 30.1327 42.9614 28.7308 42.9614C27.3288 42.9614 26.1923 44.0979 26.1923 45.4999C26.1923 46.9018 27.3288 48.0383 28.7308 48.0383Z" fill="white"/>
<path id="Vector_15" d="M37.0385 48.0383C38.4404 48.0383 39.5769 46.9018 39.5769 45.4999C39.5769 44.0979 38.4404 42.9614 37.0385 42.9614C35.6365 42.9614 34.5 44.0979 34.5 45.4999C34.5 46.9018 35.6365 48.0383 37.0385 48.0383Z" fill="white"/>
<path id="Vector_16" d="M38.5 48.4615H10.5C7.90003 48.4615 5.7268 46.6553 5.15308 44.2307C5.0565 44.6388 5 45.0624 5 45.4999C5 48.5375 7.46244 50.9999 10.5 50.9999H38.5C41.5376 50.9999 44 48.5375 44 45.4999C44 45.0624 43.9435 44.6388 43.8469 44.2307C43.2732 46.6553 41.1 48.4615 38.5 48.4615Z" fill="#F57C3C"/>
<path id="Vector_17" d="M59 51H5V59H59V51Z" fill="#F5AA21"/>
<path id="Vector_18" d="M59 56H5V59H59V56Z" fill="#F57C3C"/>
<path id="Vector_19" d="M38.5 51.875H10.5C6.98438 51.875 4.125 49.0151 4.125 45.5C4.125 41.9849 6.98438 39.125 10.5 39.125H38.5C42.0156 39.125 44.875 41.9849 44.875 45.5C44.875 49.0151 42.0156 51.875 38.5 51.875ZM10.5 40.875C7.9502 40.875 5.875 42.9497 5.875 45.5C5.875 48.0503 7.9502 50.125 10.5 50.125H38.5C41.0498 50.125 43.125 48.0503 43.125 45.5C43.125 42.9497 41.0498 40.875 38.5 40.875H10.5Z" fill="#070707"/>
<path id="Vector_20" d="M59 51.875H5C4.5166 51.875 4.125 51.4834 4.125 51C4.125 50.5166 4.5166 50.125 5 50.125H59C59.4834 50.125 59.875 50.5166 59.875 51C59.875 51.4834 59.4834 51.875 59 51.875Z" fill="#070707"/>
<path id="Vector_21" d="M59 59.875H5C4.5166 59.875 4.125 59.4834 4.125 59C4.125 58.5166 4.5166 58.125 5 58.125H59C59.4834 58.125 59.875 58.5166 59.875 59C59.875 59.4834 59.4834 59.875 59 59.875Z" fill="#070707"/>
<path id="Vector_22" d="M14.9971 55.0127H12.2188C11.7354 55.0127 11.3438 54.6211 11.3438 54.1377C11.3438 53.6543 11.7354 53.2627 12.2188 53.2627H14.9971C15.4805 53.2627 15.8721 53.6543 15.8721 54.1377C15.8721 54.6211 15.4805 55.0127 14.9971 55.0127Z" fill="#070707"/>
<path id="Vector_23" d="M55.7773 56.875H52.999C52.5156 56.875 52.124 56.4834 52.124 56C52.124 55.5166 52.5156 55.125 52.999 55.125H55.7773C56.2607 55.125 56.6523 55.5166 56.6523 56C56.6523 56.4834 56.2607 56.875 55.7773 56.875Z" fill="#070707"/>
<path id="Vector_24" d="M25.8887 56.875H23.1104C22.627 56.875 22.2354 56.4834 22.2354 56C22.2354 55.5166 22.627 55.125 23.1104 55.125H25.8887C26.3721 55.125 26.7637 55.5166 26.7637 56C26.7637 56.4834 26.3721 56.875 25.8887 56.875Z" fill="#070707"/>
<path id="Vector_25" d="M32 56.875H30.6104C30.127 56.875 29.7354 56.4834 29.7354 56C29.7354 55.5166 30.127 55.125 30.6104 55.125H32C32.4834 55.125 32.875 55.5166 32.875 56C32.875 56.4834 32.4834 56.875 32 56.875Z" fill="#070707"/>
<path id="Vector_26" d="M42.6943 55.0127H41.3057C40.8223 55.0127 40.4307 54.6211 40.4307 54.1377C40.4307 53.6543 40.8223 53.2627 41.3057 53.2627H42.6943C43.1777 53.2627 43.5693 53.6543 43.5693 54.1377C43.5693 54.6211 43.1777 55.0127 42.6943 55.0127Z" fill="#070707"/>
<path id="Vector_27" d="M11.9619 48.9136C10.0791 48.9136 8.54785 47.3823 8.54785 45.5C8.54785 43.6177 10.0791 42.0864 11.9619 42.0864C13.8438 42.0864 15.375 43.6177 15.375 45.5C15.375 47.3823 13.8438 48.9136 11.9619 48.9136ZM11.9619 43.8364C11.0439 43.8364 10.2979 44.5825 10.2979 45.5C10.2979 46.4175 11.0439 47.1636 11.9619 47.1636C12.8789 47.1636 13.625 46.4175 13.625 45.5C13.625 44.5825 12.8789 43.8364 11.9619 43.8364Z" fill="#070707"/>
<path id="Vector_28" d="M20.4229 48.9136C18.541 48.9136 17.0098 47.3823 17.0098 45.5C17.0098 43.6177 18.541 42.0864 20.4229 42.0864C22.3057 42.0864 23.8369 43.6177 23.8369 45.5C23.8369 47.3823 22.3057 48.9136 20.4229 48.9136ZM20.4229 43.8364C19.5059 43.8364 18.7598 44.5825 18.7598 45.5C18.7598 46.4175 19.5059 47.1636 20.4229 47.1636C21.3408 47.1636 22.0869 46.4175 22.0869 45.5C22.0869 44.5825 21.3408 43.8364 20.4229 43.8364Z" fill="#070707"/>
<path id="Vector_29" d="M28.7305 48.9136C26.8486 48.9136 25.3174 47.3823 25.3174 45.5C25.3174 43.6177 26.8486 42.0864 28.7305 42.0864C30.6133 42.0864 32.1445 43.6177 32.1445 45.5C32.1445 47.3823 30.6133 48.9136 28.7305 48.9136ZM28.7305 43.8364C27.8135 43.8364 27.0674 44.5825 27.0674 45.5C27.0674 46.4175 27.8135 47.1636 28.7305 47.1636C29.6484 47.1636 30.3945 46.4175 30.3945 45.5C30.3945 44.5825 29.6484 43.8364 28.7305 43.8364Z" fill="#070707"/>
<path id="Vector_30" d="M37.0381 48.9136C35.1562 48.9136 33.625 47.3823 33.625 45.5C33.625 43.6177 35.1562 42.0864 37.0381 42.0864C38.9209 42.0864 40.4521 43.6177 40.4521 45.5C40.4521 47.3823 38.9209 48.9136 37.0381 48.9136ZM37.0381 43.8364C36.1211 43.8364 35.375 44.5825 35.375 45.5C35.375 46.4175 36.1211 47.1636 37.0381 47.1636C37.9561 47.1636 38.7021 46.4175 38.7021 45.5C38.7021 44.5825 37.9561 43.8364 37.0381 43.8364Z" fill="#070707"/>
<path id="Vector_31" d="M42 37.3745H7C6.5166 37.3745 6.125 36.9829 6.125 36.4995V30C6.125 29.8272 6.17578 29.6582 6.27148 29.5147L10.2715 23.5147C10.4346 23.271 10.707 23.125 11 23.125H27.125V18C27.125 17.5166 27.5166 17.125 28 17.125H37C37.2598 17.125 37.5059 17.2402 37.6719 17.4399L42.6719 23.4399C42.8037 23.5972 42.875 23.7954 42.875 24V36.4995C42.875 36.9829 42.4834 37.3745 42 37.3745ZM7.875 35.6245H41.125V24.3169L36.5898 18.875H28.875V24C28.875 24.4834 28.4834 24.875 28 24.875H11.4688L7.875 30.2651V35.6245Z" fill="#070707"/>
<path id="Vector_32" d="M42 31.875H28C27.5166 31.875 27.125 31.4834 27.125 31V18C27.125 17.5166 27.5166 17.125 28 17.125C28.4834 17.125 28.875 17.5166 28.875 18V30.125H42C42.4834 30.125 42.875 30.5166 42.875 31C42.875 31.4834 42.4834 31.875 42 31.875Z" fill="#070707"/>
<path id="Vector_33" d="M17 24.875C16.5166 24.875 16.125 24.4834 16.125 24V18C16.125 17.5166 16.5166 17.125 17 17.125H28C28.4834 17.125 28.875 17.5166 28.875 18C28.875 18.4834 28.4834 18.875 28 18.875H17.875V24C17.875 24.4834 17.4834 24.875 17 24.875Z" fill="#070707"/>
<path id="Vector_34" d="M49 11.3937C49.7697 11.3937 50.3936 10.7698 50.3936 10.0001C50.3936 9.2304 49.7697 8.60645 49 8.60645C48.2303 8.60645 47.6063 9.2304 47.6063 10.0001C47.6063 10.7698 48.2303 11.3937 49 11.3937Z" fill="#070707"/>
<path id="Vector_35" d="M28 18.875C27.5166 18.875 27.125 18.4834 27.125 18V14.8198C27.125 13.9292 27.7588 13.1558 28.6318 12.9815L43.834 9.94093C44.3154 9.84718 44.7686 10.1538 44.8643 10.6275C44.959 11.1011 44.6514 11.562 44.1777 11.6568L28.9756 14.6973C28.917 14.709 28.875 14.7603 28.875 14.8198V18C28.875 18.4834 28.4834 18.875 28 18.875Z" fill="#070707"/>
<path id="Vector_36" d="M18.999 18.8749C18.8808 18.8749 18.7597 18.851 18.6445 18.7997C18.2031 18.6034 18.0039 18.0863 18.2002 17.6444L20.8701 11.6376C21.8252 9.49012 23.7812 7.99354 26.1035 7.63514L47.29 4.36317C47.7812 4.29139 48.2148 4.61756 48.2881 5.09413C48.3623 5.57216 48.0351 6.01893 47.5576 6.09267L26.3711 9.36464C24.6396 9.63222 23.1806 10.7475 22.4697 12.3485L19.7998 18.3554C19.6543 18.6815 19.3349 18.8749 18.999 18.8749Z" fill="#070707"/>
<path id="Vector_37" d="M47.4238 42.5698C47.1064 42.5698 46.8125 42.3979 46.6582 42.1186C46.499 41.8306 46.5147 41.4766 46.6992 41.2036L52.9932 31.9258L43.6387 12.4971C42.7617 10.6768 42.8809 8.56836 43.9551 6.85742C45.0303 5.14648 46.8789 4.125 48.8994 4.125C51.6944 4.125 54.1065 6.1167 54.6338 8.86133L58.8399 30.7319C59.0596 31.228 59.875 33.2607 59.875 36.0708C59.875 41.9395 48.7276 42.522 47.4561 42.5694C47.4453 42.5698 47.4346 42.5698 47.4238 42.5698ZM48.8994 5.875C47.4844 5.875 46.1904 6.59033 45.4375 7.78857C44.6846 8.98681 44.6016 10.4634 45.2148 11.7383L54.7881 31.6206C54.9238 31.9014 54.8994 32.2329 54.7246 32.4912L49.167 40.6831C52.6875 40.2939 58.125 39.0566 58.125 36.0708C58.125 33.3174 57.2207 31.3994 57.2119 31.3804C57.1797 31.3125 57.1553 31.2388 57.1406 31.165L52.915 9.19141C52.5459 7.27002 50.8564 5.875 48.8994 5.875Z" fill="#070707"/>
<path id="Vector_38" d="M38 40.875C37.5166 40.875 37.125 40.4834 37.125 40V36.4995C37.125 36.0161 37.5166 35.6245 38 35.6245C38.4834 35.6245 38.875 36.0161 38.875 36.4995V40C38.875 40.4834 38.4834 40.875 38 40.875Z" fill="#070707"/>
<path id="Vector_39" d="M11 40.875C10.5166 40.875 10.125 40.4834 10.125 40V36.4995C10.125 36.0161 10.5166 35.6245 11 35.6245C11.4834 35.6245 11.875 36.0161 11.875 36.4995V40C11.875 40.4834 11.4834 40.875 11 40.875Z" fill="#070707"/>
<path id="Vector_40" d="M33 31.875C32.5166 31.875 32.125 31.4834 32.125 31V18C32.125 17.5166 32.5166 17.125 33 17.125C33.4834 17.125 33.875 17.5166 33.875 18V31C33.875 31.4834 33.4834 31.875 33 31.875Z" fill="#070707"/>
<path id="Vector_41" d="M14 31.875C13.5166 31.875 13.125 31.4834 13.125 31V28C13.125 27.5166 13.5166 27.125 14 27.125C14.4834 27.125 14.875 27.5166 14.875 28V31C14.875 31.4834 14.4834 31.875 14 31.875Z" fill="#070707"/>
<path id="Vector_42" d="M17.5 31.875C17.0166 31.875 16.625 31.4834 16.625 31V28C16.625 27.5166 17.0166 27.125 17.5 27.125C17.9834 27.125 18.375 27.5166 18.375 28V31C18.375 31.4834 17.9834 31.875 17.5 31.875Z" fill="#070707"/>
<path id="Vector_43" d="M21 31.875C20.5166 31.875 20.125 31.4834 20.125 31V28C20.125 27.5166 20.5166 27.125 21 27.125C21.4834 27.125 21.875 27.5166 21.875 28V31C21.875 31.4834 21.4834 31.875 21 31.875Z" fill="#070707"/>
<path id="Vector_44" d="M53.999 32.8751C53.6074 32.8751 53.251 32.6099 53.1514 32.2125C53.0342 31.7432 53.3193 31.2686 53.7881 31.1514L57.7881 30.1514C58.2568 30.0347 58.7315 30.3189 58.8486 30.7877C58.9658 31.2569 58.6807 31.7315 58.2119 31.8487L54.2119 32.8487C54.1406 32.8668 54.0694 32.8751 53.999 32.8751Z" fill="#070707"/>
<path id="Vector_45" d="M52.5674 18.6909C52.1924 18.6909 51.8457 18.4487 51.7304 18.0718L50.4013 13.7227C50.2597 13.2603 50.5205 12.771 50.9824 12.6299C51.4472 12.4888 51.9345 12.7495 52.0752 13.2109L53.4043 17.5601C53.5459 18.0225 53.2851 18.5117 52.8232 18.6528C52.7383 18.6787 52.6513 18.6909 52.5674 18.6909Z" fill="white"/>
<path id="Vector_46" d="M37.9912 25.2495C37.7324 25.2495 37.4765 25.1357 37.3037 24.9174L35.6797 22.8637C35.3799 22.4843 35.4443 21.934 35.8232 21.6342C36.205 21.334 36.7539 21.4004 37.0527 21.7778L38.6767 23.8315C38.9765 24.2109 38.9121 24.7612 38.5332 25.061C38.372 25.1879 38.1806 25.2495 37.9912 25.2495Z" fill="white"/>
<path id="Vector_47" d="M24.0762 21.875H21C20.5166 21.875 20.125 21.4834 20.125 21C20.125 20.5166 20.5166 20.125 21 20.125H24.0762C24.5596 20.125 24.9512 20.5166 24.9512 21C24.9512 21.4834 24.5596 21.875 24.0762 21.875Z" fill="white"/>
</g>
</svg>
