<svg width="100" height="100" viewBox="0 0 100 100" fill="none" xmlns="http://www.w3.org/2000/svg">
<g id="Architect 1">
<path id="Vector" d="M75.9351 62.5001L75.7772 61.395C75.1733 57.1671 71.6331 54.0328 67.462 54.033H32.538C28.3668 54.0328 24.8267 57.1671 24.2227 61.395L24.0649 62.5001H75.9351Z" fill="#F5AA21"/>
<path id="Vector_2" d="M81.704 54.0328H79.962V62.4999H20.038V54.0328H18.296C15.9579 54.0328 14.0625 55.9283 14.0625 58.2664V87.9538C14.0625 90.292 15.9579 92.1874 18.2961 92.1874H81.7039C84.0421 92.1874 85.9375 90.292 85.9375 87.9538V58.2664C85.9375 55.9283 84.0421 54.0328 81.704 54.0328Z" fill="#FF9900"/>
<path id="Vector_3" d="M82.8125 76.2153L81.3432 79.3014C79.8674 82.4008 76.7407 84.3751 73.308 84.3751H26.6921C23.2593 84.3751 20.1326 82.4008 18.6569 79.3014L17.1875 76.2153L14.0625 76.5626V87.9539C14.0625 90.2921 15.958 92.1876 18.2961 92.1876H81.7039C84.042 92.1876 85.9375 90.2921 85.9375 87.954V76.5626L82.8125 76.2153Z" fill="#F5AA21"/>
<path id="Vector_4" d="M12.5 71.875C9.91112 71.875 7.8125 73.8182 7.8125 76.2153V83.1597C7.8125 85.5567 9.91112 87.5 12.5 87.5C15.0889 87.5 17.1875 85.5567 17.1875 83.1597V76.2153C17.1875 73.8182 15.0889 71.875 12.5 71.875Z" fill="#FBBB9F"/>
<path id="Vector_5" d="M87.5 71.875C90.0889 71.875 92.1875 73.8182 92.1875 76.2153V83.1597C92.1875 85.5567 90.0889 87.5 87.5 87.5C84.9111 87.5 82.8125 85.5567 82.8125 83.1597V76.2153C82.8125 73.8182 84.9111 71.875 87.5 71.875Z" fill="#FBBB9F"/>
<path id="Vector_6" d="M12.5 82.8124C9.91116 82.8124 7.8125 80.8691 7.8125 78.4722V83.1597C7.8125 85.5566 9.91116 87.4999 12.5 87.4999C15.0888 87.4999 17.1875 85.5566 17.1875 83.1597V78.4722C17.1875 80.8691 15.0888 82.8124 12.5 82.8124Z" fill="#F58E81"/>
<path id="Vector_7" d="M87.5 82.8124C84.9112 82.8124 82.8125 80.8691 82.8125 78.4722V83.1597C82.8125 85.5566 84.9112 87.4999 87.5 87.4999C90.0888 87.4999 92.1875 85.5566 92.1875 83.1597V78.4722C92.1875 80.8691 90.0888 82.8124 87.5 82.8124Z" fill="#F58E81"/>
<path id="Vector_8" d="M42.9969 50.9515V54.0329L50 60.7594L57.0031 54.0329V50.9515H42.9969Z" fill="#FBBB9F"/>
<path id="Vector_9" d="M34.5932 31.623V37.2256C34.5932 45.7345 41.491 52.6324 50 52.6324C58.509 52.6324 65.4068 45.7345 65.4068 37.2256V31.623H34.5932Z" fill="#FBBB9F"/>
<path id="Vector_10" d="M65.4068 31.623H34.5932V35.8249H65.4068V31.623Z" fill="#F58E81"/>
<path id="Vector_11" d="M67.3459 26.0205H32.6541C31.7912 26.0205 31.0916 26.7201 31.0916 27.583V30.0605C31.0916 30.9234 31.7912 31.623 32.6541 31.623H67.3459C68.2088 31.623 68.9084 30.9234 68.9084 30.0605V27.583C68.9084 26.7201 68.2088 26.0205 67.3459 26.0205Z" fill="#F57C3C"/>
<path id="Vector_12" d="M67.0321 26.0206C66.173 17.3703 58.8764 10.6138 50 10.6138C41.1235 10.6138 33.827 17.3703 32.9679 26.0206H67.0321Z" fill="#FF9900"/>
<path id="Vector_13" d="M52.8012 26.0205H47.1988L44.7699 10.2329C44.5741 8.96023 45.5588 7.8125 46.8464 7.8125H53.1536C54.4412 7.8125 55.4259 8.96023 55.2301 10.2329L52.8012 26.0205Z" fill="#F57C3C"/>
<path id="Vector_14" d="M74.1943 58.8501C73.7732 58.8501 73.3566 58.6563 73.0896 58.2901C71.7651 56.4789 69.664 55.3986 67.4683 55.3986H57.0007C56.2454 55.3986 55.6335 54.7867 55.6335 54.0314C55.6335 53.2761 56.2454 52.6642 57.0007 52.6642H67.4683C70.5322 52.6642 73.4589 54.1641 75.296 56.6757C75.7416 57.2845 75.6088 58.1406 75 58.5861C74.7574 58.7647 74.4736 58.8501 74.1943 58.8501Z" fill="#070707"/>
<path id="Vector_15" d="M43.3143 63.8672C42.7284 63.8672 42.1867 63.4873 42.0074 62.8983L39.4279 54.4312C39.2074 53.7094 39.6148 52.9449 40.3373 52.7252C41.0583 52.5024 41.8235 52.9129 42.0433 53.6346L44.6228 62.1017C44.8433 62.8235 44.4359 63.5879 43.7134 63.8077C43.5806 63.8489 43.4463 63.8672 43.3143 63.8672Z" fill="#070707"/>
<path id="Vector_16" d="M56.6849 63.8671C56.5537 63.8671 56.4194 63.8488 56.2866 63.8076C55.5634 63.5879 55.1575 62.8234 55.3772 62.1017L57.9575 53.6346C58.1772 52.9144 58.9401 52.5009 59.6634 52.7252C60.3867 52.9449 60.7926 53.7094 60.5728 54.4311L57.9926 62.8982C57.8125 63.4872 57.2708 63.8671 56.6849 63.8671Z" fill="#070707"/>
<path id="Vector_17" d="M24.0639 63.8672C24.0005 63.8672 23.9365 63.8626 23.8716 63.8535C23.1239 63.7482 22.6028 63.0569 22.7089 62.3093L22.8653 61.2C23.568 56.3324 27.7237 52.6642 32.531 52.6642H43C43.7554 52.6642 44.3672 53.2761 44.3672 54.0314C44.3672 54.7867 43.7554 55.3986 43 55.3986H32.531C29.0733 55.3986 26.0819 58.0582 25.5722 61.586L25.4158 62.6907C25.3197 63.3743 24.7345 63.8672 24.0639 63.8672Z" fill="#070707"/>
<path id="Vector_18" d="M50 62.1262C49.659 62.1262 49.3172 61.9995 49.0532 61.7447L42.0502 55.0186C41.7816 54.7607 41.6298 54.4052 41.6298 54.0329V50.9522C41.6298 50.1968 42.2417 49.585 42.997 49.585C43.7523 49.585 44.3642 50.1968 44.3642 50.9522V53.45L50 58.8638L55.6366 53.45V50.9522C55.6366 50.1968 56.2485 49.585 57.0038 49.585C57.7591 49.585 58.371 50.1968 58.371 50.9522V54.0329C58.371 54.4052 58.2199 54.7607 57.9514 55.0186L50.9468 61.7447C50.6828 61.9995 50.341 62.1262 50 62.1262Z" fill="#070707"/>
<path id="Vector_19" d="M50 53.9993C40.7509 53.9993 33.226 46.4752 33.226 37.2253V36.2991C33.226 35.5438 33.8379 34.932 34.5932 34.932C35.3485 34.932 35.9604 35.5438 35.9604 36.2991V37.2253C35.9604 44.9661 42.2585 51.265 50 51.265C57.7408 51.265 64.0396 44.9661 64.0396 37.2253V31.6223C64.0396 30.867 64.6515 30.2551 65.4068 30.2551C66.1621 30.2551 66.774 30.867 66.774 31.6223V37.2253C66.774 46.4752 59.2499 53.9993 50 53.9993Z" fill="#070707"/>
<path id="Vector_20" d="M50 46.9971C46.5202 46.9971 43.2808 45.1248 41.5459 42.1097C41.169 41.4551 41.3941 40.6189 42.0487 40.242C42.7063 39.8667 43.541 40.0925 43.9156 40.7456C45.1645 42.9154 47.4953 44.2627 50 44.2627C52.5055 44.2627 54.837 42.9154 56.0837 40.7456C56.4606 40.0925 57.2952 39.8636 57.9514 40.242C58.606 40.6189 58.8303 41.4551 58.4549 42.1097C56.72 45.1248 53.4805 46.9971 50 46.9971Z" fill="#070707"/>
<path id="Vector_21" d="M67.3462 32.9894H32.6538C31.0387 32.9894 29.7241 31.6757 29.7241 30.0598V27.5833C29.7241 25.9673 31.0387 24.6536 32.6538 24.6536H67.3462C68.9621 24.6536 70.2759 25.9673 70.2759 27.5833V30.0598C70.2759 31.6757 68.9621 32.9894 67.3462 32.9894ZM32.6538 27.3879C32.5462 27.3879 32.4585 27.4749 32.4585 27.5833V30.0598C32.4585 30.1681 32.5462 30.2551 32.6538 30.2551H67.3462C67.4545 30.2551 67.5415 30.1681 67.5415 30.0598V27.5833C67.5415 27.4749 67.4545 27.3879 67.3462 27.3879H32.6538Z" fill="#070707"/>
<path id="Vector_22" d="M47.197 27.388C46.5332 27.388 45.9511 26.9043 45.8473 26.2283L43.4189 10.4401C43.2648 9.43909 43.5547 8.42437 44.2139 7.65533C44.8738 6.88628 45.8328 6.44531 46.846 6.44531H53.154C54.1672 6.44531 55.127 6.8863 55.7861 7.65533C56.4453 8.42284 56.7352 9.43908 56.5826 10.4401L54.1534 26.2283C54.0375 26.9745 53.3447 27.4902 52.594 27.3727C51.8478 27.2568 51.3351 26.5594 51.4503 25.8133L53.8788 10.025C53.9246 9.73509 53.7933 9.53063 53.7109 9.43603C53.6285 9.33991 53.447 9.17969 53.154 9.17969H46.846C46.553 9.17969 46.3715 9.33991 46.289 9.43603C46.2074 9.53064 46.077 9.73511 46.1212 10.025L48.5496 25.8133C48.6648 26.5594 48.1529 27.2568 47.406 27.3727C47.3358 27.3834 47.2656 27.388 47.197 27.388Z" fill="#070707"/>
<path id="Vector_23" d="M40.1962 20.3843C39.695 20.3843 39.212 20.1081 38.9725 19.629L37.0819 15.8478C36.7447 15.1719 37.0178 14.3509 37.6938 14.0137C38.3675 13.675 39.1907 13.9481 39.5279 14.6241L41.4185 18.4052C41.7557 19.0812 41.4826 19.9021 40.8066 20.2393C40.6105 20.3385 40.4022 20.3843 40.1962 20.3843Z" fill="#070707"/>
<path id="Vector_24" d="M59.8023 20.3843C59.5978 20.3843 59.3887 20.3385 59.1919 20.2393C58.5175 19.9021 58.2428 19.0812 58.5816 18.4052L60.4737 14.6241C60.8109 13.9497 61.6272 13.6704 62.3078 14.0137C62.9822 14.351 63.2569 15.1719 62.9181 15.8479L61.026 19.629C60.7865 20.1081 60.3043 20.3843 59.8023 20.3843Z" fill="#070707"/>
<path id="Vector_25" d="M34.2201 22.4472C34.0431 22.4472 33.8631 22.4136 33.6899 22.3404C32.9941 22.0474 32.6675 21.2448 32.9613 20.549C35.0906 15.4968 39.3112 11.6745 44.5411 10.0632C45.2636 9.84039 46.0273 10.2447 46.2509 10.9665C46.4729 11.6882 46.0678 12.4542 45.3468 12.6755C40.8913 14.0488 37.2955 17.305 35.4805 21.611C35.2608 22.1329 34.7534 22.4472 34.2201 22.4472Z" fill="#070707"/>
<path id="Vector_26" d="M65.7791 22.4472C65.2466 22.4472 64.74 22.1329 64.5187 21.6111C62.7045 17.3066 59.1095 14.0488 54.6539 12.6755C53.9322 12.4527 53.5278 11.6883 53.7506 10.9665C53.9719 10.2448 54.7363 9.84195 55.4596 10.0632C60.6888 11.6745 64.9094 15.4969 67.0395 20.5491C67.3324 21.2449 67.0059 22.0475 66.3101 22.3404C66.1362 22.4137 65.9561 22.4472 65.7791 22.4472Z" fill="#070707"/>
<path id="Vector_27" d="M85.9375 73.4924C85.1822 73.4924 84.5703 72.8806 84.5703 72.1252V58.2657C84.5703 57.4921 84.2743 56.7703 83.7357 56.2332C83.1985 55.6946 82.4768 55.3986 81.7032 55.3986H81.3354V62.5C81.3354 63.2553 80.7236 63.8672 79.9683 63.8672C79.2129 63.8672 78.6011 63.2553 78.6011 62.5V54.0314C78.6011 53.2761 79.2129 52.6642 79.9683 52.6642H81.7032C83.2062 52.6642 84.6161 53.2455 85.6705 54.2984C86.7233 55.3528 87.3047 56.7627 87.3047 58.2657V72.1252C87.3047 72.8806 86.6928 73.4924 85.9375 73.4924Z" fill="#070707"/>
<path id="Vector_28" d="M12.5 88.8672C9.16138 88.8672 6.44531 86.3067 6.44531 83.1604V76.2146C6.44531 73.0682 9.16138 70.5078 12.5 70.5078C15.8386 70.5078 18.5547 73.0682 18.5547 76.2146V83.1604C18.5547 86.3067 15.8386 88.8672 12.5 88.8672ZM12.5 73.2422C10.6689 73.2422 9.17969 74.5758 9.17969 76.2146V83.1604C9.17969 84.7992 10.6689 86.1328 12.5 86.1328C14.3311 86.1328 15.8203 84.7992 15.8203 83.1604V76.2146C15.8203 74.5758 14.3311 73.2422 12.5 73.2422Z" fill="#070707"/>
<path id="Vector_29" d="M87.5 88.8672C84.1614 88.8672 81.4453 86.3067 81.4453 83.1604V76.2146C81.4453 73.0682 84.1614 70.5078 87.5 70.5078C90.8386 70.5078 93.5547 73.0682 93.5547 76.2146V83.1604C93.5547 86.3067 90.8386 88.8672 87.5 88.8672ZM87.5 73.2422C85.6689 73.2422 84.1797 74.5758 84.1797 76.2146V83.1604C84.1797 84.7992 85.6689 86.1328 87.5 86.1328C89.3311 86.1328 90.8203 84.7992 90.8203 83.1604V76.2146C90.8203 74.5758 89.3311 73.2422 87.5 73.2422Z" fill="#070707"/>
<path id="Vector_30" d="M81.7047 63.8672H18.296C15.2077 63.8672 12.6953 61.3556 12.6953 58.2672C12.6953 57.5119 13.3072 56.9 14.0625 56.9C14.8178 56.9 15.4297 57.5119 15.4297 58.2672C15.4297 59.848 16.7152 61.1328 18.296 61.1328H81.7047C83.2855 61.1328 84.5703 59.848 84.5703 58.2672C84.5703 57.5119 85.1822 56.9 85.9375 56.9C86.6928 56.9 87.3047 57.5119 87.3047 58.2672C87.3047 61.3556 84.7931 63.8672 81.7047 63.8672Z" fill="#070707"/>
<path id="Vector_31" d="M66.4688 93.5547H18.296C15.2077 93.5547 12.6953 91.0416 12.6953 87.9532V87.2498C12.6953 86.4944 13.3072 85.8826 14.0625 85.8826C14.8178 85.8826 15.4297 86.4944 15.4297 87.2498V87.9532C15.4297 89.534 16.7152 90.8203 18.296 90.8203H66.4688C67.2241 90.8203 67.836 91.4322 67.836 92.1875C67.836 92.9428 67.2241 93.5547 66.4688 93.5547Z" fill="#070707"/>
<path id="Vector_32" d="M81.7032 93.5547H74.1455C73.3902 93.5547 72.7783 92.9428 72.7783 92.1875C72.7783 91.4322 73.3902 90.8203 74.1455 90.8203H81.7032C83.284 90.8203 84.5703 89.534 84.5703 87.9532V87.2498C84.5703 86.4944 85.1822 85.8826 85.9375 85.8826C86.6928 85.8826 87.3047 86.4944 87.3047 87.2498V87.9532C87.3047 91.0416 84.7916 93.5547 81.7032 93.5547Z" fill="#070707"/>
<path id="Vector_33" d="M14.0625 68.4021C13.3072 68.4021 12.6953 67.7902 12.6953 67.0349V58.2657C12.6953 55.1773 15.2084 52.6642 18.2968 52.6642H20.031C20.7863 52.6642 21.3982 53.2761 21.3982 54.0314V62.5C21.3982 63.2553 20.7863 63.8672 20.031 63.8672C19.2757 63.8672 18.6638 63.2553 18.6638 62.5V55.3986H18.2968C16.716 55.3986 15.4297 56.6849 15.4297 58.2657V67.0349C15.4297 67.7902 14.8178 68.4021 14.0625 68.4021Z" fill="#070707"/>
<path id="Vector_34" d="M50.4883 13.7253H49.3553C48.6 13.7253 47.9881 13.1135 47.9881 12.3582C47.9881 11.6028 48.6 10.991 49.3553 10.991H50.4883C51.2436 10.991 51.8555 11.6028 51.8555 12.3582C51.8555 13.1135 51.2436 13.7253 50.4883 13.7253Z" fill="#070707"/>
<path id="Vector_35" d="M76.0544 69.5359H75.0259C74.2706 69.5359 73.6588 68.924 73.6588 68.1687C73.6588 67.4134 74.2706 66.8015 75.0259 66.8015H76.0544C76.8097 66.8015 77.4216 67.4134 77.4216 68.1687C77.4216 68.924 76.8097 69.5359 76.0544 69.5359Z" fill="#070707"/>
<path id="Vector_36" d="M69.9295 69.5359H57.9742C57.2189 69.5359 56.6071 68.924 56.6071 68.1687C56.6071 67.4134 57.2189 66.8015 57.9742 66.8015H69.9295C70.6848 66.8015 71.2967 67.4134 71.2967 68.1687C71.2967 68.924 70.6848 69.5359 69.9295 69.5359Z" fill="#070707"/>
<path id="Vector_37" d="M26.0437 69.5359H22.4197C21.6644 69.5359 21.0526 68.924 21.0526 68.1687C21.0526 67.4134 21.6644 66.8015 22.4197 66.8015H26.0437C26.799 66.8015 27.4109 67.4134 27.4109 68.1687C27.4109 68.924 26.799 69.5359 26.0437 69.5359Z" fill="#070707"/>
</g>
</svg>
