<svg width="20" height="20" viewBox="0 0 20 20" fill="none" xmlns="http://www.w3.org/2000/svg">
<g id="Group">
<path id="Path" fill-rule="evenodd" clip-rule="evenodd" d="M17.913 0.797497L15.7326 1.52363C15.2916 1.67092 14.9948 2.08433 14.9962 2.54923V5.00146H17.4515C17.9164 5.00285 18.3298 4.70602 18.4771 4.26507L19.2032 2.08463C19.2681 1.89122 19.2176 1.67776 19.073 1.53388L18.4668 0.927749C18.3224 0.781938 18.1073 0.731368 17.913 0.797497Z" stroke="black" stroke-width="1.5" stroke-linecap="round" stroke-linejoin="round"/>
<path id="Path_2" d="M10.9235 9.07393L14.9962 5.00125" stroke="black" stroke-width="1.5" stroke-linecap="round" stroke-linejoin="round"/>
<path id="Path_3" d="M5.81187 14.1857L7.86308 12.1345" stroke="black" stroke-width="1.5" stroke-linecap="round" stroke-linejoin="round"/>
<path id="Path_4" d="M7.11131 9.65059L3.18016 13.5817H1.84687L1.08485 14.3438C0.882556 14.5458 0.768884 14.8199 0.768884 15.1058C0.768884 15.3917 0.882556 15.6658 1.08485 15.8678L2.6048 17.3847L4.12987 18.9098C4.33187 19.1121 4.60602 19.2257 4.8919 19.2257C5.17778 19.2257 5.45192 19.1121 5.65392 18.9098L6.41595 18.1477V16.8114L10.3471 12.8802H11.6804L12.4424 12.1182C12.8631 11.6973 12.8631 11.0151 12.4424 10.5941L10.9204 9.07728L9.39841 7.54912C9.19672 7.34664 8.92269 7.23282 8.6369 7.23282C8.35111 7.23282 8.07708 7.34664 7.87539 7.54912L7.11336 8.31115V9.65264" stroke="black" stroke-width="1.5" stroke-linecap="round" stroke-linejoin="round"/>
</g>
</svg>
