<svg width="64" height="64" viewBox="0 0 64 64" fill="none" xmlns="http://www.w3.org/2000/svg">
<g id="Surveyor 1">
<path id="Vector" d="M51.4863 39.2837C51.0999 36.5786 48.8355 34.5731 46.1674 34.5732H17.8321C15.1639 34.5731 12.8996 36.5786 12.5132 39.2837L10.7258 51.7998C10.5743 52.8603 10.4987 53.9303 10.4996 55.0015V55.0032C10.5013 57.2111 12.2912 59 14.4984 59H19.4511L22.4067 57.0808H41.5928L44.5484 59H49.5008C51.7076 59 53.4973 57.2116 53.4996 55.0041C53.5007 53.9311 53.4251 52.8595 53.2734 51.7973L51.4863 39.2837Z" fill="#F57C3C"/>
<path id="Vector_2" d="M10.7258 51.7997C10.5743 52.8602 10.4987 53.9302 10.4996 55.0015V55.0031C10.5013 57.211 12.2912 58.9999 14.4984 58.9999H19.4511L22.4067 57.0807H41.5928L44.5484 58.9999H49.5007C51.7077 58.9999 53.4973 57.2115 53.4996 55.004C53.5007 53.931 53.4251 52.8594 53.2734 51.7972L53.0485 50.2222H10.951L10.7258 51.7997Z" fill="#FFC62B"/>
<path id="Vector_3" d="M36.4792 34.5732C36.4792 34.5732 36.6494 40.8464 31.9997 46.379C27.35 40.8464 27.5202 34.5732 27.5202 34.5732H18.5613V53.3926H45.4381V34.5732H36.4792Z" fill="#F5AA21"/>
<path id="Vector_4" d="M27.5203 32.6018V36.5944C28.1508 38.8649 30.0753 40.5869 31.9997 40.5869C33.9242 40.5869 35.8487 38.8649 36.4792 36.5944V32.6018H27.5203Z" fill="#FBBB9F"/>
<path id="Vector_5" d="M22.1449 20.2346V23.8193C22.1449 29.2635 26.557 33.677 31.9997 33.677C37.4424 33.677 41.8546 29.2636 41.8546 23.8193V20.2346H22.1449Z" fill="#FBBB9F"/>
<path id="Vector_6" d="M41.8546 20.2346H22.1449V22.9231H41.8546V20.2346Z" fill="#F58E81"/>
<path id="Vector_7" d="M43.0943 16.6501H20.9052C20.3529 16.6501 19.9052 17.0979 19.9052 17.6501V19.2348C19.9052 19.7871 20.3529 20.2348 20.9052 20.2348H43.0943C43.6466 20.2348 44.0943 19.7871 44.0943 19.2348V17.6501C44.0943 17.0979 43.6466 16.6501 43.0943 16.6501Z" fill="#F5AA21"/>
<path id="Vector_8" d="M42.8941 16.65C42.3447 11.1153 37.6775 6.79224 31.9997 6.79224C26.322 6.79224 21.6548 11.1153 21.1053 16.65H42.8941Z" fill="#FFCD51"/>
<path id="Vector_9" d="M33.7915 16.6501H30.208L28.6543 6.54864C28.5291 5.73436 29.1589 5 29.9826 5H34.0169C34.8405 5 35.4704 5.73436 35.3451 6.54864L33.7915 16.6501Z" fill="#F5AA21"/>
<path id="Vector_10" d="M39.6736 37.8889H24.3259C23.2659 37.8889 22.4067 38.7482 22.4067 39.8081V57.0807C22.4067 58.1407 23.2659 58.9999 24.3259 58.9999H39.6736C40.7336 58.9999 41.5928 58.1407 41.5928 57.0807V39.8081C41.5928 38.7482 40.7336 37.8889 39.6736 37.8889Z" fill="white"/>
<path id="Vector_11" d="M39.6742 56.1213H24.3253C23.2657 56.1213 22.4067 55.2621 22.4067 54.2021V57.0809C22.4067 58.1408 23.2657 59.0001 24.3253 59.0001H39.6742C40.7338 59.0001 41.5928 58.1408 41.5928 57.0809V54.2021C41.5928 55.2621 40.7338 56.1213 39.6742 56.1213Z" fill="#F57C3C"/>
<path id="Vector_12" d="M41.5928 56.1213H42.8746C44.2904 56.1213 45.4381 55.262 45.4381 54.2021V42.687C45.4381 41.6271 44.2904 40.7678 42.8746 40.7678H41.5928V56.1213Z" fill="white"/>
<path id="Vector_13" d="M22.4066 56.1213H21.1249C19.7091 56.1213 18.5613 55.262 18.5613 54.2021V42.687C18.5613 41.6271 19.7091 40.7678 21.1249 40.7678H22.4066V56.1213Z" fill="white"/>
<path id="Vector_14" d="M31.9997 54.1259C35.3743 54.1259 38.1099 51.3902 38.1099 48.0157C38.1099 44.6411 35.3743 41.9055 31.9997 41.9055C28.6251 41.9055 25.8895 44.6411 25.8895 48.0157C25.8895 51.3902 28.6251 54.1259 31.9997 54.1259Z" fill="#FFC62B"/>
<path id="Vector_15" d="M31.9997 50.4161C33.3255 50.4161 34.4002 49.3414 34.4002 48.0157C34.4002 46.6899 33.3255 45.6152 31.9997 45.6152C30.674 45.6152 29.5993 46.6899 29.5993 48.0157C29.5993 49.3414 30.674 50.4161 31.9997 50.4161Z" fill="#F5AA21"/>
<path id="Vector_16" d="M19.4511 49C17.8188 49 16.4956 50.2436 16.4956 51.7778V56.2222C16.4956 57.7563 17.8188 59 19.4511 59C21.0834 59 22.4066 57.7563 22.4066 56.2222V51.7778C22.4066 50.2436 21.0834 49 19.4511 49Z" fill="#FBBB9F"/>
<path id="Vector_17" d="M19.4511 55.9999C21.0834 55.9999 22.4066 54.7562 22.4066 53.2222V56.2222C22.4066 57.7562 21.0834 58.9999 19.4511 58.9999C17.8188 58.9999 16.4956 57.7562 16.4956 56.2222V53.2222C16.4956 54.7562 17.8188 55.9999 19.4511 55.9999Z" fill="#F58E81"/>
<path id="Vector_18" d="M44.5484 49C46.1807 49 47.5039 50.2436 47.5039 51.7778V56.2222C47.5039 57.7563 46.1807 59 44.5484 59C42.9161 59 41.5929 57.7563 41.5929 56.2222V51.7778C41.5929 50.2436 42.9161 49 44.5484 49Z" fill="#FBBB9F"/>
<path id="Vector_19" d="M44.5484 55.9999C42.9161 55.9999 41.5929 54.7562 41.5929 53.2222V56.2222C41.5929 57.7562 42.9161 58.9999 44.5484 58.9999C46.1807 58.9999 47.5039 57.7562 47.5039 56.2222V53.2222C47.5039 54.7562 46.1807 55.9999 44.5484 55.9999Z" fill="#F58E81"/>
<path id="Vector_20" d="M14.3746 45.4657C14.3287 45.4657 14.2818 45.4618 14.2339 45.455C13.7574 45.3778 13.4332 44.9286 13.5093 44.4511L14.1138 40.7069C14.1919 40.2304 14.6304 39.9101 15.1177 39.9823C15.5943 40.0595 15.9185 40.5087 15.8423 40.9862L15.2378 44.7304C15.1675 45.1601 14.7964 45.4657 14.3746 45.4657Z" fill="white"/>
<path id="Vector_21" d="M49.6255 45.4658C49.2036 45.4658 48.8326 45.1601 48.7623 44.7304L48.1578 40.9863C48.0816 40.5088 48.4058 40.0595 48.8824 39.9824C49.3736 39.914 49.8081 40.2314 49.8863 40.707L50.4908 44.4511C50.5669 44.9287 50.2427 45.3779 49.7662 45.4551C49.7183 45.4619 49.6714 45.4658 49.6255 45.4658Z" fill="white"/>
<path id="Vector_22" d="M38.2711 41.4619H36.649C36.1656 41.4619 35.774 41.0703 35.774 40.5869C35.774 40.1035 36.1656 39.7119 36.649 39.7119H38.2711C38.7545 39.7119 39.1461 40.1035 39.1461 40.5869C39.1461 41.0703 38.7545 41.4619 38.2711 41.4619Z" fill="white"/>
<path id="Vector_23" d="M14.5015 59.875C11.8218 59.875 9.63528 57.6943 9.62844 55.0137C9.62453 53.9014 9.70266 52.7744 9.86086 51.665L11.647 39.1602C12.0923 36.0469 14.7505 33.6982 17.8316 33.6982H27.52C28.0034 33.6982 28.395 34.0898 28.395 34.5732C28.395 35.0566 28.0034 35.4482 27.52 35.4482H17.8316C15.6157 35.4482 13.7017 37.1504 13.3794 39.4082L11.5933 51.9131C11.4468 52.9375 11.3745 53.9795 11.3784 55.0088C11.3833 56.7275 12.7837 58.125 14.5015 58.125C14.9849 58.125 15.3765 58.5166 15.3765 59C15.3765 59.4834 14.9849 59.875 14.5015 59.875Z" fill="#070707"/>
<path id="Vector_24" d="M16.4957 53.1201H13.8746C13.3912 53.1201 12.9996 52.7285 12.9996 52.2451C12.9996 51.7617 13.3912 51.3701 13.8746 51.3701H16.4957C16.9791 51.3701 17.3707 51.7617 17.3707 52.2451C17.3707 52.7285 16.9791 53.1201 16.4957 53.1201Z" fill="#070707"/>
<path id="Vector_25" d="M49.4976 59.875H44.5484C44.065 59.875 43.6734 59.4834 43.6734 59C43.6734 58.5166 44.065 58.125 44.5484 58.125H49.4976C51.2144 58.125 52.6168 56.7275 52.6216 55.0088C52.6246 53.9775 52.5523 52.9355 52.4058 51.9131L50.6197 39.4082C50.2974 37.1504 48.3843 35.4482 46.1675 35.4482H40.524C40.0406 35.4482 39.649 35.0566 39.649 34.5732C39.649 34.0898 40.0406 33.6982 40.524 33.6982H46.1675C49.2496 33.6982 51.9078 36.0469 52.3521 39.1611L54.1382 51.665C54.2964 52.7715 54.3746 53.8984 54.3716 55.0137C54.3628 57.6943 52.1773 59.875 49.4976 59.875Z" fill="#070707"/>
<path id="Vector_26" d="M50.1255 53.1201H47.5034C47.02 53.1201 46.6284 52.7285 46.6284 52.2451C46.6284 51.7617 47.02 51.3701 47.5034 51.3701H50.1255C50.6089 51.3701 51.0005 51.7617 51.0005 52.2451C51.0005 52.7285 50.6089 53.1201 50.1255 53.1201Z" fill="#070707"/>
<path id="Vector_27" d="M31.9995 34.5518C26.0835 34.5518 21.27 29.7373 21.27 23.8193V22.9229C21.27 22.4395 21.6616 22.0479 22.145 22.0479C22.6284 22.0479 23.02 22.4395 23.02 22.9229V23.8193C23.02 28.7725 27.0483 32.8018 31.9995 32.8018C36.9517 32.8018 40.98 28.7725 40.98 23.8193V20.2344C40.98 19.751 41.3716 19.3594 41.855 19.3594C42.3384 19.3594 42.73 19.751 42.73 20.2344V23.8193C42.73 29.7373 37.9165 34.5518 31.9995 34.5518Z" fill="#070707"/>
<path id="Vector_28" d="M31.9995 30.0713C29.773 30.0713 27.7007 28.873 26.5913 26.9443C26.3511 26.5254 26.4946 25.9902 26.9136 25.749C27.3335 25.5068 27.8677 25.6533 28.1089 26.0713C28.9068 27.459 30.398 28.3213 31.9995 28.3213C33.6021 28.3213 35.0933 27.459 35.8901 26.0723C36.1314 25.6523 36.6665 25.5068 37.0845 25.749C37.5034 25.9902 37.648 26.5244 37.4077 26.9434C36.2993 28.873 34.2271 30.0713 31.9995 30.0713Z" fill="#070707"/>
<path id="Vector_29" d="M43.0943 21.1094H20.9048C19.8707 21.1094 19.0298 20.2686 19.0298 19.2344V17.6504C19.0298 16.6162 19.8707 15.7754 20.9048 15.7754H43.0943C44.1285 15.7754 44.9693 16.6162 44.9693 17.6504V19.2344C44.9693 20.2686 44.1285 21.1094 43.0943 21.1094ZM20.9048 17.5254C20.8355 17.5254 20.7798 17.581 20.7798 17.6504V19.2344C20.7798 19.3037 20.8355 19.3594 20.9048 19.3594H43.0943C43.1636 19.3594 43.2193 19.3037 43.2193 19.2344V17.6504C43.2193 17.581 43.1636 17.5254 43.0943 17.5254H20.9048Z" fill="#070707"/>
<path id="Vector_30" d="M33.7925 17.5254C33.7486 17.5254 33.7037 17.5225 33.6587 17.5156C33.1812 17.4414 32.8531 16.9951 32.9263 16.5176L34.48 6.41601C34.5093 6.23046 34.4253 6.0996 34.3726 6.03808C34.3199 5.97753 34.2046 5.87499 34.0171 5.87499H29.983C29.7955 5.87499 29.6793 5.97753 29.6265 6.03905C29.5748 6.0996 29.4908 6.22948 29.5191 6.41503L31.0728 16.5176C31.146 16.9951 30.8179 17.4414 30.3404 17.5156C29.8589 17.5889 29.4156 17.2607 29.3423 16.7832L27.7896 6.68164C27.691 6.04199 27.8765 5.3916 28.2984 4.89941C28.7203 4.40722 29.3345 4.125 29.983 4.125H34.0171C34.6646 4.125 35.2789 4.40723 35.7007 4.89844C36.1226 5.39063 36.3082 6.04102 36.2105 6.68164L34.6568 16.7832C34.5894 17.2158 34.2173 17.5254 33.7925 17.5254Z" fill="#070707"/>
<path id="Vector_31" d="M25.729 13.044C25.4077 13.044 25.0981 12.8672 24.9458 12.5606L23.7368 10.1416C23.52 9.70899 23.6958 9.1836 24.1274 8.96778C24.562 8.74903 25.0864 8.92676 25.3013 9.3584L26.5103 11.7774C26.7271 12.21 26.5513 12.7354 26.1196 12.9512C25.9937 13.0147 25.8599 13.044 25.729 13.044Z" fill="#070707"/>
<path id="Vector_32" d="M38.2701 13.044C38.1392 13.044 38.0054 13.0147 37.8795 12.9512C37.4478 12.7354 37.272 12.21 37.4888 11.7774L38.6978 9.35841C38.9117 8.92677 39.4361 8.74903 39.8716 8.96779C40.3033 9.18361 40.4791 9.709 40.2623 10.1416L39.0533 12.5606C38.9009 12.8672 38.5914 13.044 38.2701 13.044Z" fill="#070707"/>
<path id="Vector_33" d="M21.107 17.5254C21.0787 17.5254 21.0494 17.5245 21.0201 17.5215C20.5396 17.4737 20.188 17.0459 20.2349 16.5645C20.7037 11.8184 23.9507 7.84476 28.5074 6.44047C28.9712 6.29985 29.4595 6.55766 29.6011 7.01859C29.7437 7.4805 29.4849 7.97074 29.023 8.11234C25.1412 9.30863 22.3755 12.6934 21.9771 16.7364C21.9322 17.1885 21.5513 17.5254 21.107 17.5254Z" fill="#070707"/>
<path id="Vector_34" d="M42.0923 14.3643C41.7515 14.3643 41.4273 14.1631 41.2857 13.8291C40.1255 11.0732 37.8257 8.99023 34.9761 8.1123C34.5142 7.9707 34.2554 7.48046 34.398 7.01855C34.5396 6.55664 35.0279 6.29882 35.4918 6.44043C38.8365 7.4707 41.5367 9.91602 42.899 13.1494C43.0865 13.5947 42.8775 14.1084 42.4322 14.2959C42.3209 14.3428 42.2056 14.3643 42.0923 14.3643Z" fill="#070707"/>
<path id="Vector_35" d="M27.9 38.7646C27.4957 38.7646 27.1324 38.4824 27.0455 38.0713C26.608 36.0127 26.6451 34.6035 26.6461 34.5439V32.5996C26.6461 32.1162 27.0377 31.7246 27.5211 31.7246C28.0045 31.7246 28.3961 32.1162 28.3961 32.5996V34.5703C28.3951 34.6074 28.3668 35.8711 28.7564 37.708C28.857 38.1807 28.5552 38.6455 28.0826 38.7451C28.0211 38.7588 27.9605 38.7646 27.9 38.7646Z" fill="#070707"/>
<path id="Vector_36" d="M36.0992 38.7646C36.0386 38.7646 35.9781 38.7588 35.9166 38.7451C35.4439 38.6455 35.1421 38.1807 35.2427 37.708C35.6324 35.8711 35.6041 34.6074 35.6031 34.5947V32.5996C35.6031 32.1162 35.9947 31.7246 36.4781 31.7246C36.9615 31.7246 37.3531 32.1162 37.3531 32.5996V34.5703C37.3541 34.6035 37.3912 36.0127 36.9537 38.0713C36.8668 38.4824 36.5035 38.7646 36.0992 38.7646Z" fill="#070707"/>
<path id="Vector_37" d="M39.6744 59.875H24.3257C22.7847 59.875 21.5318 58.6221 21.5318 57.0811V39.8086C21.5318 38.2676 22.7847 37.0137 24.3257 37.0137H39.6744C41.2144 37.0137 42.4673 38.2676 42.4673 39.8086V57.0811C42.4673 58.6221 41.2144 59.875 39.6744 59.875ZM24.3257 38.7637C23.7505 38.7637 23.2818 39.2324 23.2818 39.8086V57.0811C23.2818 57.6562 23.7505 58.125 24.3257 58.125H39.6744C40.2496 58.125 40.7173 57.6562 40.7173 57.0811V39.8086C40.7173 39.2324 40.2496 38.7637 39.6744 38.7637H24.3257Z" fill="#070707"/>
<path id="Vector_38" d="M31.9995 55.002C28.148 55.002 25.0151 51.8682 25.0151 48.0156C25.0151 44.1631 28.1479 41.0293 31.9995 41.0293C35.8511 41.0293 38.9839 44.1631 38.9839 48.0156C38.9839 49.2666 38.6489 50.4951 38.0151 51.5664C37.77 51.9824 37.2339 52.1221 36.8169 51.874C36.4009 51.6279 36.2632 51.0918 36.5093 50.6758C36.9829 49.874 37.2339 48.9541 37.2339 48.0156C37.2339 45.1279 34.8862 42.7793 31.9995 42.7793C29.1128 42.7793 26.7651 45.1279 26.7651 48.0156C26.7651 50.9033 29.1128 53.252 31.9995 53.252C32.5562 53.252 33.105 53.165 33.6294 52.9932C34.0923 52.8379 34.5835 53.0928 34.7329 53.5518C34.8843 54.0107 34.6333 54.5049 34.1743 54.6553C33.4741 54.8857 32.7417 55.002 31.9995 55.002Z" fill="#070707"/>
<path id="Vector_39" d="M31.9996 51.291C30.1939 51.291 28.7252 49.8213 28.7252 48.0156C28.7252 46.21 30.1939 44.7402 31.9996 44.7402C33.8052 44.7402 35.275 46.21 35.275 48.0156C35.275 49.8213 33.8052 51.291 31.9996 51.291ZM31.9996 46.4902C31.1587 46.4902 30.4752 47.1748 30.4752 48.0156C30.4752 48.8564 31.1587 49.541 31.9996 49.541C32.8404 49.541 33.525 48.8564 33.525 48.0156C33.525 47.1748 32.8404 46.4902 31.9996 46.4902Z" fill="#070707"/>
<path id="Vector_40" d="M18.564 43.5654C18.0806 43.5654 17.689 43.1738 17.689 42.6904C17.689 41.1484 19.229 39.8945 21.1226 39.8945H22.4028C22.8862 39.8945 23.2778 40.2861 23.2778 40.7695C23.2778 41.2529 22.8862 41.6445 22.4028 41.6445H21.1226C20.1304 41.6445 19.439 42.1953 19.439 42.6904C19.439 43.1738 19.0474 43.5654 18.564 43.5654Z" fill="#070707"/>
<path id="Vector_41" d="M44.5483 59.875C42.436 59.875 40.7183 58.2363 40.7183 56.2226V51.7773C40.7183 49.7637 42.436 48.125 44.5483 48.125C46.6607 48.125 48.3784 49.7637 48.3784 51.7773V56.2226C48.3784 58.2363 46.6607 59.875 44.5483 59.875ZM44.5483 49.875C43.4019 49.875 42.4683 50.7285 42.4683 51.7773V56.2226C42.4683 57.2715 43.4019 58.125 44.5483 58.125C45.6948 58.125 46.6284 57.2715 46.6284 56.2226V51.7773C46.6284 50.7285 45.6948 49.875 44.5483 49.875Z" fill="#070707"/>
<path id="Vector_42" d="M18.5611 50.0127C18.0777 50.0127 17.6861 49.6211 17.6861 49.1377V34.5732C17.6861 34.0898 18.0777 33.6982 18.5611 33.6982C19.0445 33.6982 19.4361 34.0898 19.4361 34.5732V49.1377C19.4361 49.6211 19.0445 50.0127 18.5611 50.0127Z" fill="#070707"/>
<path id="Vector_43" d="M45.436 43.5654C44.9526 43.5654 44.561 43.1738 44.561 42.6904C44.561 42.1953 43.8696 41.6445 42.8765 41.6445H41.5972C41.1138 41.6445 40.7222 41.2529 40.7222 40.7695C40.7222 40.2861 41.1138 39.8945 41.5972 39.8945H42.8765C44.77 39.8945 46.311 41.1484 46.311 42.6904C46.311 43.1738 45.9194 43.5654 45.436 43.5654Z" fill="#070707"/>
<path id="Vector_44" d="M45.438 50.0127C44.9546 50.0127 44.563 49.6211 44.563 49.1377V34.5732C44.563 34.0898 44.9546 33.6982 45.438 33.6982C45.9214 33.6982 46.313 34.0898 46.313 34.5732V49.1377C46.313 49.6211 45.9214 50.0127 45.438 50.0127Z" fill="#070707"/>
<path id="Vector_45" d="M19.4507 59.875C17.3384 59.875 15.6206 58.2363 15.6206 56.2226V51.7773C15.6206 49.7637 17.3384 48.125 19.4507 48.125C21.563 48.125 23.2817 49.7637 23.2817 51.7773V56.2226C23.2817 58.2363 21.563 59.875 19.4507 59.875ZM19.4507 49.875C18.3042 49.875 17.3706 50.7285 17.3706 51.7773V56.2226C17.3706 57.2715 18.3042 58.125 19.4507 58.125C20.5981 58.125 21.5317 57.2715 21.5317 56.2226V51.7773C21.5317 50.7285 20.5981 49.875 19.4507 49.875Z" fill="#070707"/>
</g>
</svg>
